<?xml version="1.0" encoding="utf-8"?>
<!-- Generator: Adobe Illustrator 18.0.0, SVG Export Plug-In . SVG Version: 6.00 Build 0)  -->
<svg version="1.2" baseProfile="tiny" id="Calque_1"
	 xmlns="http://www.w3.org/2000/svg" xmlns:xlink="http://www.w3.org/1999/xlink" x="0px" y="0px" viewBox="0 0 64 64"
	 xml:space="preserve">
<path fill="#485E69" d="M58.1,12.3C55,10.4,48,9.7,42.5,9.7c-0.5,0-1,0-1.4,0c-0.4-0.5-0.9-1-1.6-1.4C33.9,5,13.2,4.7,6.4,8.4
	c-6.9,3.7-1.3,10-1.3,13v29.9c0,3.1,2.3,5.5,5.2,5.5h16.5c1.1,1.1,2.5,1.8,4.1,1.8h22.4c3.2,0,5.8-2.8,5.8-6.2V25.2
	c0-0.6,0.4-1.6,0.8-2.6C60.9,19.5,62.6,15,58.1,12.3z M7.4,22.2c-0.2,0-0.4-0.2-0.4-0.5c0-0.3,0.2-0.5,0.4-0.5
	c0.2,0,0.4,0.2,0.4,0.5C7.8,22,7.6,22.2,7.4,22.2z M22.9,23.7c0.6,0,1,0.5,1,1.1c0,0.6-0.4,1.1-1,1.1c-0.6,0-1-0.5-1-1.1
	C21.9,24.2,22.3,23.7,22.9,23.7z M14.4,31.1h-1.7v-1.8h1.7V31.1z M22.4,37c-0.3,0-0.5-0.2-0.5-0.5c0-0.3,0.2-0.5,0.5-0.5
	c0.3,0,0.5,0.2,0.5,0.5C22.9,36.8,22.6,37,22.4,37z M25.6,46.7h-2.7V46h2.7V46.7z M27,32.2c-0.8,0-1.4-0.7-1.4-1.5
	c0-0.8,0.6-1.5,1.4-1.5c0.8,0,1.4,0.7,1.4,1.5C28.4,31.5,27.7,32.2,27,32.2z M34.9,43.6h-2v-1.5h2V43.6z M57.8,21.7
	c-0.5,1.3-0.9,2.5-0.9,3.5v27.3c0,2.1-1.6,3.9-3.6,3.9H36.8c1.8-0.8,3.1-2.8,3.1-5.1V21.4c0-2.2,2.6-6.1,2.1-9.4c0.2,0,0.3,0,0.5,0
	c6.5,0,12.3,0.9,14.6,2.3C59.7,15.9,59.1,18.2,57.8,21.7z"/>
</svg>
