<?xml version="1.0" encoding="utf-8"?>
<!-- Generator: Adobe Illustrator 18.0.0, SVG Export Plug-In . SVG Version: 6.00 Build 0)  -->
<svg version="1.2" baseProfile="tiny" id="Calque_1"
	 xmlns="http://www.w3.org/2000/svg" xmlns:xlink="http://www.w3.org/1999/xlink" x="0px" y="0px" viewBox="0 0 64 64"
	 xml:space="preserve">
<path fill="#485E69" d="M15.4,51.4l4-4c8.8-8.5,23.3-3.7,34.6-15c6.8-6.8,7.4-17.4,1.3-23.5c-6.1-6.1-16.7-5.6-23.5,1.3
	c-13.5,13.5-6.1,25.7-15,34.6l-4,4c-1.2-1.2-3.3-1.1-4.6,0.3c-1.4,1.4-1.5,3.4-0.3,4.6c0.5,0.5,1.2,0.8,1.9,0.8
	c0,0.7,0.3,1.4,0.8,1.9c1.2,1.2,3.3,1.1,4.6-0.3C16.4,54.7,16.6,52.6,15.4,51.4z M49.2,14.9c-2.2-2.2-2.9-4.9-1.7-6.1
	c1.2-1.2,3.9-0.4,6.1,1.7c2.2,2.2,2.9,4.9,1.7,6.1C54.1,17.9,51.3,17.1,49.2,14.9z"/>
</svg>
