<?xml version="1.0" encoding="utf-8"?>
<!-- Generator: Adobe Illustrator 18.0.0, SVG Export Plug-In . SVG Version: 6.00 Build 0)  -->
<svg version="1.2" baseProfile="tiny" id="Calque_1"
	 xmlns="http://www.w3.org/2000/svg" xmlns:xlink="http://www.w3.org/1999/xlink" x="0px" y="0px" viewBox="0 0 64 64"
	 xml:space="preserve">
<g>
	<path fill="#485E69" d="M9,22.7c1.3-1,1.6-3.1,0.7-4.7c-0.9-1.5-5.3-3.3-5.3-3.3S4.2,20.3,5,21.8C5.9,23.4,7.7,23.8,9,22.7z"/>
	<path fill="#485E69" d="M24.2,16.1c1.6-0.7,2.5-2.8,1.9-4.7C25.5,9.4,21.3,6,21.3,6s-1.6,5.8-1.1,7.8
		C20.8,15.7,22.5,16.7,24.2,16.1z"/>
	<path fill="#485E69" d="M54.9,22.8c1.3,1.1,3,0.8,3.9-0.7c0.9-1.5,0.8-7.1,0.8-7.1s-4.5,1.6-5.4,3.1C53.4,19.6,53.7,21.7,54.9,22.8
		z"/>
	<path fill="#485E69" d="M56.6,29.9C58.1,29.4,61,25,61,25s-4.3-2.1-5.9-1.6c-0.3,0.1-0.5,0.2-0.7,0.4c0-0.3,0-0.6,0-0.9
		c-0.2-1.8-3.6-5.7-3.6-5.7s-2.2,4.9-2,6.8c0.2,1.8,1.7,3.1,3.2,2.8c0.4-0.1,0.7-0.2,1-0.4c0,0.1,0,0.2,0,0.4
		c-0.6,1.1-1.3,2.2-1.8,3.4c-0.1,0-0.1,0.1-0.2,0.1c0-0.4-0.1-0.8-0.3-1.1c-0.8-1.7-5.1-4-5.1-4s-0.7,5.7,0.1,7.3
		c0.7,1.6,2.4,2.2,3.8,1.4c0,0,0,0.1,0,0.1c0,0.1,0,0.2,0.1,0.3c-0.4,1.2-0.8,2.3-1.2,3.5c0,0-0.1,0.1-0.1,0.1
		c0-0.6-0.2-1.2-0.4-1.8c-0.4-0.9-1.9-1.9-3.2-2.7c0.3-0.7,0.5-1.3,0.5-1.3s-4.2-0.6-6.5,0l0.1-0.9c0.8,0.3,1.6,0.3,2.4-0.2
		c1.6-0.9,3.9-6.6,3.9-6.6s-3.5-0.8-5.6-0.5l0.2-2c1,1.2,2.5,1.5,3.8,0.6c1.5-1,3.4-6.7,3.4-6.7s-5.1-0.7-6.6,0.3
		c-0.2,0.2-0.5,0.4-0.7,0.6c0-0.3-0.1-0.6-0.2-0.9c-0.7-1.9-5.2-4.8-5.2-4.8s-1.1,6-0.4,7.9c0.7,1.9,2.5,2.7,4.1,1.8
		c0.4-0.2,0.7-0.5,0.9-0.8c0,0.1,0,0.3,0.1,0.4c-0.4,1.3-0.8,2.8-1.1,4.3c-0.1,0.1-0.1,0.1-0.2,0.2c-0.1-0.4-0.3-0.8-0.6-1.1
		c-1.2-1.5-6.4-2.5-6.4-2.5s0.1,0.5,0.2,1.3c-1.5,0.4-3.3,0.9-3.9,1.7c-0.3,0.3-0.5,0.7-0.6,1.1c-0.1-0.1-0.1-0.1-0.2-0.2
		c-0.3-1.5-0.6-2.9-1-4.3c0-0.1,0.1-0.3,0.1-0.4c0.3,0.3,0.6,0.6,0.9,0.8c1.5,0.9,3.4,0.1,4.2-1.7c0.8-1.8-0.2-7.9-0.2-7.9
		s-4.6,2.8-5.4,4.6c-0.1,0.3-0.2,0.6-0.2,0.9c-0.2-0.2-0.4-0.5-0.6-0.7c-1.5-1.1-6.6-0.6-6.6-0.6s1.8,5.7,3.3,6.8
		c1.2,0.9,2.8,0.7,3.8-0.5l0.2,2c-2.1-0.3-5.6,0.3-5.6,0.3s2.2,5.7,3.8,6.7c0.8,0.5,1.6,0.6,2.4,0.3l0.1,0.9
		c-2.2-0.6-6.5-0.2-6.5-0.2s0.2,0.5,0.4,1.3c-1.3,0.7-2.8,1.7-3.2,2.5c-0.3,0.5-0.4,1.1-0.5,1.7c0,0-0.1-0.1-0.1-0.1
		c-0.3-1.2-0.7-2.4-1.1-3.6c0-0.1,0.1-0.2,0.1-0.3c0,0,0-0.1,0-0.1c1.4,0.8,3,0.3,3.8-1.3c0.8-1.6,0.3-7.3,0.3-7.3s-4.4,2.2-5.2,3.8
		c-0.2,0.4-0.3,0.7-0.3,1.1c-0.1,0-0.1-0.1-0.2-0.1c-0.5-1.2-1.1-2.4-1.7-3.5c0-0.1,0-0.3,0-0.4c0.3,0.2,0.6,0.4,1,0.5
		c1.5,0.3,3-0.9,3.3-2.7c0.3-1.8-1.8-6.9-1.8-6.9s-3.5,3.8-3.8,5.6c0,0.3,0,0.6,0,0.8c-0.2-0.2-0.4-0.3-0.7-0.4
		c-1.5-0.5-5.9,1.4-5.9,1.4s2.8,4.5,4.3,5.1c1.3,0.5,2.6-0.2,3.2-1.5l0.5,1.8C9,30.4,6,32,6,32s3.1,4.4,4.6,4.8
		c0.8,0.2,1.5,0,2.2-0.4l0.3,0.8c-2.1,0.1-5.7,1.7-5.7,1.7s3.1,5.1,4.8,5.7c1.1,0.4,2.2,0,3-0.8l0.6,1.9c-0.1,0-0.1-0.1-0.2-0.1
		C13.9,44.9,9,47,9,47s3.1,5.1,4.7,5.7c1.5,0.5,3-0.3,3.7-1.8l1.1,3.6c0,0-0.2-2-0.8-4.9c0,0,0-0.1,0-0.1c0.2,0.3,0.4,0.5,0.6,0.7
		c1.2,1,2.8,0.8,3.9-0.3c1.3,0.7,2.9,0.4,3.9-0.9l0.3,4.2c0,0,0.2-2.2,0.4-5.5c0,0,0-0.1,0.1-0.1c0.1,0.3,0.3,0.6,0.5,0.9
		c1.2,1.7,3.3,1.9,4.8,0.6c1.2,0.4,2.6,0,3.5-1.2c0.2-0.3,0.4-0.6,0.5-0.9c0,0,0,0.1,0,0.1c0.1,3.3,0.3,5.5,0.3,5.5l0.4-4.2
		c1,1.3,2.6,1.7,3.9,1c1,1.2,2.6,1.4,3.9,0.5c0.2-0.2,0.4-0.4,0.6-0.7c0,0,0,0.1,0,0.1c-0.6,3-0.9,4.9-0.9,4.9l1.2-3.6
		c0.7,1.6,2.2,2.4,3.7,1.9c1.7-0.6,4.9-5.5,4.9-5.5s-4.9-2.3-6.6-1.7c-0.1,0-0.1,0.1-0.2,0.1l0.6-1.9c0.8,0.9,1.9,1.2,3,0.9
		c1.7-0.5,4.9-5.5,4.9-5.5s-3.6-1.7-5.7-1.9l0.3-0.8c0.6,0.5,1.4,0.7,2.2,0.5c1.6-0.4,4.8-4.6,4.8-4.6s-2.9-1.7-4.8-2.1l0.6-1.7
		C54,29.6,55.3,30.3,56.6,29.9z M32.5,29.1c1.2,1.5,3.1,1.5,4.4,0.2c0,0,0,0.1,0,0.1c0,0.1,0.1,0.2,0.1,0.3
		c-0.2,1.4-0.3,2.8-0.4,4.1c0,0.1-0.1,0.1-0.1,0.2c-0.2-0.6-0.5-1.2-0.9-1.7c-0.1-0.2-0.3-0.3-0.6-0.4c0.1-0.6,0.2-1,0.2-1
		s-0.8,0.1-1.8,0.2c-0.9-0.3-1.9-0.6-2.8-0.7c0.2-0.2,0.4-0.3,0.6-0.5c0.3-0.3,0.5-0.9,0.8-1.5C32.2,28.6,32.3,28.9,32.5,29.1z
		 M27.1,34.6c0-0.1-0.1-0.1-0.1-0.2c-0.1-1.4-0.2-2.8-0.3-4.2c0-0.1,0.1-0.2,0.2-0.3c0,0,0-0.1,0-0.1c0.5,0.5,1.1,0.9,1.7,1
		c0.1,0.4,0.2,0.9,0.3,1.5c-0.3,0.2-0.6,0.4-0.8,0.6C27.6,33.4,27.3,34,27.1,34.6z M17.6,44.9c-0.2,0.4-0.4,0.8-0.4,1.2
		c-0.3-1.4-0.6-2.8-1-4.3c0-0.2,0.1-0.4,0.1-0.5c0.1,0.2,0.3,0.3,0.4,0.4c0.5,0.4,1.1,0.6,1.7,0.6c0.1,0.3,0.3,0.8,0.5,1.3
		C18.3,44,17.8,44.4,17.6,44.9z M25.6,42.5c-0.4-0.3-1.2-0.5-2.1-0.7c0-0.5,0-0.8,0-0.8s-0.6,0.3-1.4,0.6c-0.7,0-1.4,0-2,0
		c0.4-0.3,0.8-0.7,1-1.2c0.2-0.3,0.3-0.7,0.4-1.2c0.3,0.4,0.5,0.7,0.8,0.9c1.1,0.8,2.3,0.8,3.4,0.2l0.2,2.2
		C25.7,42.6,25.7,42.6,25.6,42.5z M27.1,43.7c0-1.5,0.1-3.2,0-4.9c0.1-0.2,0.2-0.4,0.2-0.5c0.1,0.2,0.2,0.4,0.4,0.6
		c0.3,0.4,0.6,0.7,1,0.9c-0.2,0-0.4,0-0.4,0s0.1,1,0.4,2.2c-0.4,0.2-0.7,0.4-0.9,0.6C27.5,42.9,27.3,43.2,27.1,43.7z M35.5,41.9
		c-0.2-0.2-0.4-0.3-0.6-0.5c0.1-0.5,0.2-0.8,0.2-0.8s-0.7,0.1-1.6,0.2c-0.8-0.3-1.7-0.5-2.5-0.6c0.5-0.1,1-0.4,1.4-0.8
		c1.2,0.3,2.5,0,3.4-1.2c0.1-0.2,0.3-0.4,0.4-0.6c0.1,0.2,0.1,0.4,0.2,0.5c-0.1,1.7-0.1,3.4-0.1,4.9C36.1,42.6,35.9,42.2,35.5,41.9z
		 M37.8,42c-0.1,0-0.1,0.1-0.2,0.1l0.2-2.2c1,0.6,2.3,0.7,3.4-0.1c0.3-0.2,0.5-0.5,0.8-0.9c0.1,0.5,0.2,0.9,0.4,1.3
		c0.3,0.5,0.6,0.9,1,1.2c-0.6,0-1.3-0.1-2-0.1c-0.8-0.4-1.4-0.7-1.4-0.7s0,0.3,0,0.8C39,41.5,38.2,41.6,37.8,42z M44.6,43.3
		c0.2-0.5,0.4-1,0.5-1.3c0.6,0,1.2-0.2,1.7-0.5c0.2-0.1,0.3-0.3,0.5-0.4c0,0.2,0,0.4,0.1,0.5c-0.4,1.5-0.8,2.9-1.1,4.3
		c-0.1-0.4-0.2-0.9-0.4-1.2C45.6,44.2,45.1,43.7,44.6,43.3z"/>
	<path fill="#485E69" d="M39.9,15.6c1.6,0.7,3.4-0.3,4-2.2c0.6-1.9-0.9-7.8-0.9-7.8s-4.3,3.3-4.9,5.2C37.5,12.7,38.3,14.9,39.9,15.6
		z"/>
</g>
</svg>
