<?xml version="1.0" encoding="utf-8"?>
<!-- Generator: Adobe Illustrator 18.0.0, SVG Export Plug-In . SVG Version: 6.00 Build 0)  -->
<!DOCTYPE svg PUBLIC "-//W3C//DTD SVG 1.1//EN" "http://www.w3.org/Graphics/SVG/1.1/DTD/svg11.dtd">
<svg version="1.1" id="Calque_1" xmlns="http://www.w3.org/2000/svg" xmlns:xlink="http://www.w3.org/1999/xlink" x="0px" y="0px"
	 viewBox="0 0 64 64" enable-background="new 0 0 64 64" xml:space="preserve">
<path fill="#FFFFFF" d="M28.9,32H33l-1,4.9h-4.1L28.9,32z M56.4,23.5c-0.5,5.2-4.7,9-9.6,8.8l-3.1,27.8l-31.2-3.8l2.9-27.9
	c-4.8-1-8.2-5.7-7.7-10.9c0.5-5.4,5.2-9.4,10.5-8.7c1,0.1,2,0.4,2.9,0.8c1.6-3.4,5-5.8,9-5.8c5.5,0,10,4.5,10,10.1
	c0,0.4,0,0.8-0.1,1.2c0,0.1,0.1,0.1,0.1,0.2c2.1-2.2,4.9-3.3,7.8-2.9C53.1,13.1,56.9,18.1,56.4,23.5z M39.6,30.3h-4.3l1.4-6.5h-2
	l-1.4,6.5h-4.1l1.4-6.5h-2l-1.4,6.5h-4.5L22.3,32h4.5l-1,4.9h-4.3l-0.3,1.7h4.3l-1.4,6.4h2l1.4-6.4h4.1l-1.4,6.4h2l1.4-6.4h4.5
	l0.4-1.7H34l1-4.9h4.2L39.6,30.3z"/>
</svg>
