<?xml version="1.0" encoding="utf-8"?>
<!-- Generator: Adobe Illustrator 18.0.0, SVG Export Plug-In . SVG Version: 6.00 Build 0)  -->
<svg version="1.2" baseProfile="tiny" id="Calque_1"
	 xmlns="http://www.w3.org/2000/svg" xmlns:xlink="http://www.w3.org/1999/xlink" x="0px" y="0px" viewBox="0 0 159.2 159.2"
	 xml:space="preserve">
<path fill="#FFFFFF" d="M119.1,31.1c-7.3-0.9-14.4,1.8-19.5,7.3c-0.1-0.2-0.2-0.3-0.3-0.5c0.1-1,0.2-2,0.2-3.1
	c0-13.9-11.1-25.1-24.9-25.1c-10,0-18.6,5.9-22.5,14.4c-2.2-1.1-4.6-1.8-7.1-2.1c-13-1.6-24.7,8.2-26,21.7
	c-1.3,12.8,7.2,24.6,19.1,27.1L31,140.1l77.5,9.4l7.8-69.1c12.2,0.4,22.7-9,24-21.9C141.6,45,132.1,32.7,119.1,31.1z M51.8,31.8
	c-8.6-3.2-15.1-2-19.6,3.2c-4.5,5.2-5.3,13.9-1.7,20.3c1.9,3.5,6.7,9.1,17.2,7.5c0.3,0,0.5,0,0.7,0.2c0.2,0.2,0.3,0.5,0.3,0.7
	c-1,7.5-7.3,70.5-7.4,71.1l-2.8-0.1c0.1-0.6,7-58.9,8.3-70.1c-7.9,0.8-14.4-2.2-17.8-8.5c-3.9-7.1-3.1-16.5,2-22.3
	c2.9-3.3,9.2-7.8,21.8-3.1L51.8,31.8z"/>
</svg>
