<?xml version="1.0" encoding="utf-8"?>
<!-- Generator: Adobe Illustrator 18.0.0, SVG Export Plug-In . SVG Version: 6.00 Build 0)  -->
<svg version="1.2" baseProfile="tiny" id="Calque_1"
	 xmlns="http://www.w3.org/2000/svg" xmlns:xlink="http://www.w3.org/1999/xlink" x="0px" y="0px" viewBox="0 0 1000 239.7"
	 xml:space="preserve">
<path fill="#FFFFFF" d="M76,59C86.5,59,88,66.1,88,66.1l32.3,66.3L153,65.1c0,0,2.9-6.1,11.7-6.1c8.8,0,12.1,5.7,12.1,8.6
	c0,2.9,0,100.6,0,102.5c0,1.9-0.4,8.8-8.6,8.8s-10.2-6.5-10.2-8S157.8,96,157.8,96l-28.4,57.7c0,0-1.5,6.1-9.1,6.1s-8.7-5.2-8.7-5.2
	L82.7,96c0,0-0.6,73-0.6,75.3c0,2.3-2.9,7.7-9.2,7.7s-9.6-5.7-9.6-7.5c0-1.7,0-100.4,0-103.1C63.3,65.7,67.4,59,76,59z M234.4,119.2
	c0,63-51.1,114.1-114.1,114.1S6.2,182.2,6.2,119.2S57.3,5.1,120.3,5.1S234.4,56.2,234.4,119.2z M219.1,119.2
	c0-54.6-44.2-98.8-98.8-98.8c-54.6,0-98.8,44.2-98.8,98.8S65.8,218,120.3,218C174.9,218,219.1,173.8,219.1,119.2z M490,119.7
	c0,62.9-51,113.8-113.8,113.8c-62.9,0-113.8-51-113.8-113.8c0-62.9,51-113.8,113.8-113.8C439.1,5.9,490,56.9,490,119.7z M394,51.2
	h-22.7l-42.1,35.2l13.3,17.6l15-12.6c1.8-1.5,4.9-4.6,9.5-9.4l-0.5,14.2l-0.5,13v79.1h28V51.2z M879.9,127.3
	c-13.1,6-19.6,13.6-19.6,22.8c0,5.3,1.8,9.4,5.5,12.3c3.7,2.9,8.7,4.4,15.1,4.4c7.1,0,12.3-1.5,15.8-4.6c3.5-3,5.2-7,5.2-12
	c0-4.1-1.7-8-5.2-11.6C893.4,135.2,887.7,131.4,879.9,127.3z M995,118.7c0,62.9-51,113.8-113.8,113.8c-62.9,0-113.8-51-113.8-113.8
	c0-62.9,51-113.8,113.8-113.8C944.1,4.9,995,55.9,995,118.7z M928.5,151.1c0-7-2.2-13.4-6.6-19.3c-4.4-5.9-11.6-11.5-21.7-16.9
	c8.5-4.2,14.6-9,18.4-14.4c3.8-5.4,5.7-11.5,5.7-18.4c0-9.9-3.9-17.9-11.8-23.7c-7.9-5.9-18.3-8.8-31.2-8.8c-12.8,0-23.2,3-31.2,8.9
	c-8,6-12,13.8-12,23.4c0,6.6,1.7,12.6,5.1,18.1c3.4,5.5,8.9,10.7,16.6,15.6c-9,4.5-15.6,9.8-19.7,15.7c-4.1,6-6.1,12.8-6.1,20.4
	c0,11.5,4.2,20.4,12.6,26.6s20,9.4,34.7,9.4c14.1,0,25.5-3.4,34.2-10.1C924.1,171,928.5,162.2,928.5,151.1z M881.3,103
	c6-2.8,10.2-5.7,12.6-8.7c2.4-2.9,3.6-6.4,3.6-10.2c0-4.2-1.5-7.6-4.6-10c-3.1-2.5-7-3.7-11.8-3.7c-4.9,0-8.8,1.2-11.7,3.7
	c-3,2.5-4.5,5.8-4.5,10c0,3.7,1.2,7,3.5,9.9C870.8,97,875.1,100,881.3,103z M745,118.7c0,62.9-51,113.8-113.8,113.8
	c-62.9,0-113.8-51-113.8-113.8c0-62.9,51-113.8,113.8-113.8C694.1,4.9,745,55.9,745,118.7z M676.3,140.1c0-12.7-3.9-22.8-11.6-30.1
	s-18.1-11-31.2-11c-5.5,0-10.2,0.4-13.9,1.3l-3.2,0.6l2.5-26.7H667v-24h-73.1l-5.1,68.9l11.4,6.1c2.5-0.7,5.7-1.4,9.6-2.1
	c3.9-0.6,7.5-1,10.8-1c18,0,27.1,6.8,27.1,20.4c0,14.3-8.7,21.4-26.2,21.4c-5.8,0-11.9-0.8-18.4-2.4s-12-3.7-17-6.3v24.7
	c9,4.9,21.4,7.3,36.4,7.3c17.3,0,30.7-4.1,40-12.2C671.7,166.8,676.3,155.2,676.3,140.1z"/>
</svg>
