<?xml version="1.0" encoding="utf-8"?>
<!-- Generator: Adobe Illustrator 18.0.0, SVG Export Plug-In . SVG Version: 6.00 Build 0)  -->
<svg version="1.2" baseProfile="tiny" id="Calque_1"
	 xmlns="http://www.w3.org/2000/svg" xmlns:xlink="http://www.w3.org/1999/xlink" x="0px" y="0px" viewBox="0 0 64 64"
	 xml:space="preserve">
<g>
	<path fill="#485E69" d="M33.5,9.2c-1-1.6-2.6-2.7-4.8-3.2l-0.5,1.8c1.6,0.4,2.8,1.1,3.5,2.3c1.8,3,0.1,7.7,0.1,7.7h2
		C33.8,17.6,35.8,12.9,33.5,9.2z"/>
	<g>
		<path fill="#485E69" d="M59.7,37c0-7.7-2.5-15.3-12.2-17.4c-5.6-4.3-12.7-1.7-12.7-1.7h-1.3v0.1c0,0,1.1,2.8-0.3,6.2
			c0,0-0.2-5.6-1.4-6.3c0,0-5.3-2.7-10,0c-8.9-3-17.5,8.6-17.5,19.1c0,10.6,9.4,19.1,20.9,19.1c-2.6-2.5-4.8-5.4-6.4-8.6
			c-1.7-3.1-2.8-6.5-3.3-10c-0.4-3.5-0.2-7,0.9-10.4c1-3.4,3-6.5,5.4-9.1c-1.8,3-3.1,6.2-3.8,9.4c-0.7,3.2-0.8,6.6-0.4,9.8
			c0.4,3.3,1.4,6.5,2.7,9.6c1.3,3.1,2.9,6.2,4.9,9.1h5c3-1.8,3.5-6.3,3.5-6.3c1.3,3.4-1.9,6.3-1.9,6.3h6.9c2.6,0,5.1-0.5,7.4-1.3
			c0.8-0.8,1.4-1.6,1.9-2.4c0.8-1.3,1.2-2.8,1.6-4.4c0.9,1.6,0.7,3.5-0.2,5.1c-0.1,0.2-1.4,1.4-1.6,1.6C54.3,51.3,59.7,44.1,59.7,37
			z M49.8,28.7c0.1-1.7,0.1-3.2-0.3-4.6c-0.4-1.4-1.1-2.8-2.1-4.3c1.8,0.7,3.1,2.2,3.6,3.9C51.5,25.5,51,27.4,49.8,28.7z"/>
	</g>
</g>
</svg>
